<svg xmlns="http://www.w3.org/2000/svg" viewBox="0 0 309.67 368.78"><defs><style>.cls-1{fill:#fff;}.cls-2{fill:none;stroke:#000;stroke-miterlimit:10;stroke-width:7px;}</style></defs><g id="Layer_2" data-name="Layer 2"><g id="Layer_1-2" data-name="Layer 1"><rect class="cls-1" width="309.67" height="368.78" rx="34.07"/><path class="cls-2" d="M147.13,65.07v77.42h67.74v31H147.13V299.39a44.39,44.39,0,0,1-88.78,0v-95h31v95a13.42,13.42,0,0,0,26.84,0V65.07a31,31,0,0,1,31-31H260.67v31Z"/><path class="cls-2" d="M74.42,216.81v83.08s-.91,28.79,28.39,28.79,29.29-28.79,29.29-28.79V157.58"/><path class="cls-2" d="M249.51,49.2H147.32c-15.35,0-15.22,16-15.22,16v92.38h72.09"/></g></g></svg>