<?xml version="1.0" encoding="utf-8"?>
<!-- Generator: Adobe Illustrator 24.1.1, SVG Export Plug-In . SVG Version: 6.00 Build 0)  -->
<svg version="1.1" id="Layer_1" xmlns="http://www.w3.org/2000/svg" xmlns:xlink="http://www.w3.org/1999/xlink" x="0px" y="0px"
	 viewBox="0 0 2560 1440" style="enable-background:new 0 0 2560 1440;" xml:space="preserve">
<style type="text/css">
	.st0{enable-background:new    ;}
</style>
<g class="st0">
	<path d="M367.6,586.3V652h112.3v65.3H367.6V848h-65.5V521.1h196.4v65.3H367.6z"/>
	<path d="M744.3,847.6l-103.7-154v154h-65.5L575,521.9h106.3c60.8,0,110.7,46.9,110.7,105.5c0,41.8-25.3,78.4-60.2,90.7l92.5,129.5
		H744.3z M640.5,668.6l42,0.2c22.2,0.2,42-17.8,42-41s-20-41-42-41h-42V668.6z"/>
	<path d="M1093,802.1H962.7l-20.8,45.5h-70.7l155.6-333.8h2l155.8,333.8h-70.9L1093,802.1z M1067.5,746.4l-39.6-87.1l-39.8,87.1
		H1067.5z"/>
	<path d="M1370.9,586.7h-125.5v-64.9h229.1l-125.5,260.7h125.5v65.1h-229.1L1370.9,586.7z"/>
	<path d="M1535.3,685.1c0-93.6,76.2-169.9,169.3-169.9s169.5,76.4,169.5,169.9c0,92.7-76.4,168.7-169.7,168.7
		C1611.5,853.9,1535.3,777.9,1535.3,685.1z M1807.9,684.7c0-57-46.5-103.5-103.5-103.5c-56.8,0-103,46.5-103,103.5
		c0,56.6,46.3,102.8,103,102.8C1761.4,787.6,1807.9,741.3,1807.9,684.7z"/>
	<path d="M2218.2,521.1v332.6h-3l-193.4-188.1V848h-65.5V515.8h3.2l193,187.7V521.1H2218.2z"/>
</g>
</svg>
